<?xml version="1.0" encoding="UTF-8"?>
<svg xmlns="http://www.w3.org/2000/svg" viewBox="0 0 1024 1024">
  <defs>
    <radialGradient id="badgeGrad" cx="45%" cy="35%" r="60%">
      <stop offset="0%" stop-color="#6dc0ff"/>
      <stop offset="55%" stop-color="#2d8bc9"/>
      <stop offset="100%" stop-color="#1e6faa"/>
    </radialGradient>
    <filter id="shadow" x="-30%" y="-30%" width="160%" height="160%">
      <feDropShadow dx="0" dy="8" stdDeviation="18" flood-color="#000" flood-opacity="0.35"/>
    </filter>
    <filter id="textShadow" x="-20%" y="-20%" width="140%" height="140%">
      <feDropShadow dx="0" dy="5" stdDeviation="7" flood-color="#000" flood-opacity="0.45"/>
    </filter>
  </defs>

  <g transform="translate(512 512)">
    <circle r="420" fill="url(#badgeGrad)" filter="url(#shadow)"/>
    <circle r="420" fill="none" stroke="rgba(255,255,255,0.35)" stroke-width="3"/>
    <circle r="410" fill="none" stroke="rgba(255,255,255,0.15)" stroke-width="2"/>
  </g>

  <g transform="translate(160 295)">
    <g transform="translate(40,120)">
      <rect x="0" y="0" width="130" height="46" rx="23" fill="#ffffff" filter="url(#shadow)"/>
      <path d="M28,40 L102,40 Q116,40 116,54 L116,300 Q116,354 80,354 L50,354 Q14,354 14,300 L14,54 Q14,40 28,40 Z"
            fill="none" stroke="#ffffff" stroke-width="28" stroke-linejoin="round" stroke-linecap="round" filter="url(#shadow)"/>
      <path d="M28,235 Q70,205 110,230 L110,300 Q110,340 80,340 L50,340 Q20,340 20,300 L20,255 Q22,245 28,235 Z"
            fill="#ffffff" opacity="0.95" filter="url(#shadow)"/>
      <circle cx="38" cy="86" r="16" fill="#ffffff" filter="url(#shadow)"/>
      <circle cx="74" cy="112" r="14" fill="#ffffff" filter="url(#shadow)"/>
      <circle cx="92" cy="160" r="11" fill="#ffffff" filter="url(#shadow)"/>
    </g>
    <text x="260" y="210" font-family="Poppins, Montserrat, Arial, Helvetica, 'Liberation Sans', sans-serif"
          font-weight="800" font-size="120" fill="#ffffff" filter="url(#textShadow)">Manipularium</text>
    <text x="265" y="285" font-family="Poppins, Montserrat, Arial, Helvetica, 'Liberation Sans', sans-serif"
          font-weight="600" font-size="62" fill="#ffffff" filter="url(#textShadow)">Fórmulas Farmacêuticas</text>
  </g>
</svg>
